<?xml version="1.0" ?><svg height="56px" version="1.1" viewBox="0 0 60 56" width="60px" xmlns="http://www.w3.org/2000/svg" xmlns:xlink="http://www.w3.org/1999/xlink"><title/><desc/><defs/><g fill="none" fill-rule="evenodd" id="Page-1" stroke="none" stroke-width="1"><g fill-rule="nonzero" id="037---Van"><g id="Icons" transform="translate(1.000000, 0.000000)"><rect fill="#000000" height="6" id="Rectangle-path" width="6" x="10" y="8"/><rect fill="#000000" height="6" id="Rectangle-path" width="6" x="40" y="8"/><path d="M54.9,47.9 C56.7155888,47.4807426 58.0011948,45.8633674 58,44 L58,31.75 C58.0013852,31.2540425 57.9098043,30.7622188 57.73,30.3 L51.99,15.55 C51.3917575,14.0119241 49.9103245,12.9991481 48.26,13 L6.39,13 C4.43374068,12.9976401 2.7627816,14.4105524 2.44,16.34 L0.05,30.67 C0.0184370566,30.8886172 0.00173208583,31.1091229 2.22044605e-16,31.33 L2.22044605e-16,44 C2.22044605e-16,46.209139 1.790861,48 4,48 L4.09,48 L54.9,47.9 Z" fill="#FFACAD" id="Shape"/><rect fill="#FFFFFF" height="10" id="Rectangle-path" rx="1" width="10" x="17" y="17"/><rect fill="#FFFFFF" height="10" id="Rectangle-path" rx="1" width="10" x="31" y="17"/><path d="M13,26 L13,18 C13,17.4477153 12.5522847,17 12,17 L7.24,17 C6.75061706,16.9992934 6.3341485,17.3562664 6.26,17.84 L4.984,25.84 C4.93706745,26.1295488 5.01962906,26.4251027 5.20982573,26.6484105 C5.4000224,26.8717183 5.67867238,27.000259 5.972,27 L12,27 C12.5522847,27 13,26.5522847 13,26 Z" fill="#FFFFFF" id="Shape"/><rect fill="#735EFF" height="6" id="Rectangle-path" width="58" x="0" y="32"/><rect fill="#F96A59" height="4" id="Rectangle-path" rx="2" width="50" x="2" y="5"/><path d="M7,5 L7,2.532 C6.99999307,1.81145075 7.38757724,1.14659847 8.01459831,0.791583246 C8.64161937,0.436568018 9.41113595,0.446277409 10.029,0.817 L17,5 L7,5 Z" fill="#F96A59" id="Shape"/><path d="M58.0000008,38 L58,44 C58.0011948,45.8633674 56.7155888,47.4807426 54.9,47.9 L40,47.93 L40,38 L58.0000008,38 Z" fill="#F96A59" id="Shape"/><circle cx="10" cy="49" fill="#735EFF" id="Oval" r="6"/><circle cx="10" cy="49" fill="#000000" id="Oval" r="2"/><circle cx="49" cy="49" fill="#735EFF" id="Oval" r="6"/><circle cx="49" cy="49" fill="#000000" id="Oval" r="2"/><path d="M56.45,27 L46,27 C45.4477153,27 45,26.5522847 45,26 L45,18 C45,17.4477153 45.4477153,17 46,17 L52.55,17 L52.56,17.03 L56.45,27 Z" fill="#FFFFFF" id="Shape"/></g><g fill="#000000" id="Layer_10"><path d="M53.456,15.368 C52.7876129,13.6324206 51.11581,12.490818 49.256,12.5 L47.5,12.5 L47.5,9.5 L51,9.5 C52.3807119,9.5 53.5,8.38071187 53.5,7 C53.5,5.61928813 52.3807119,4.5 51,4.5 L18.138,4.5 L11.286,0.389 C10.5137986,-0.074203641 9.55215745,-0.0863396505 8.76851251,0.357229051 C7.98486757,0.800797753 7.50031547,1.63152652 7.5,2.532 L7.5,4.5 L5,4.5 C3.61928813,4.5 2.5,5.61928813 2.5,7 C2.5,8.38071187 3.61928813,9.5 5,9.5 L10.5,9.5 L10.5,12.5 L7.39,12.5 C5.1868972,12.4910788 3.30368705,14.0839448 2.947,16.258 L0.555,30.6 C0.519693215,30.8417561 0.501315163,31.0856829 0.5,31.33 L0.5,44 C0.515369686,46.2910104 2.24957025,48.2047446 4.528,48.445 C4.513,48.628 4.5,48.813 4.5,49 C4.5,52.5898509 7.41014913,55.5 11,55.5 C14.5898509,55.5 17.5,52.5898509 17.5,49 C17.5,48.831 17.487,48.666 17.475,48.5 L43.525,48.5 C43.513,48.666 43.5,48.831 43.5,49 C43.5,52.5898509 46.4101491,55.5 50,55.5 C53.5898509,55.5 56.5,52.5898509 56.5,49 C56.4985097,48.7479833 56.4828182,48.4962509 56.453,48.246 C58.2770136,47.6344545 59.5046102,45.9237963 59.5,44 L59.5,31.75 C59.5026549,31.192376 59.4009026,30.6391824 59.2,30.119 L53.456,15.368 Z M1.5,37.5 L1.5,32.5 L58.5,32.5 L58.5,37.5 L1.5,37.5 Z M56.715,26.5 L47,26.5 C46.7238576,26.5 46.5,26.2761424 46.5,26 L46.5,18 C46.5,17.7238576 46.7238576,17.5 47,17.5 L53.213,17.5 L56.715,26.5 Z M46.5,12.5 L41.5,12.5 L41.5,9.5 L46.5,9.5 L46.5,12.5 Z M17.5,12.5 L17.5,9.5 L40.5,9.5 L40.5,12.5 L17.5,12.5 Z M8.5,2.532 C8.50003082,1.99155379 8.79078872,1.49290788 9.26111909,1.22669096 C9.73144945,0.960474032 10.3086266,0.967850352 10.772,1.246 L16.2,4.5 L8.5,4.5 L8.5,2.532 Z M3.5,7 C3.5,6.17157288 4.17157288,5.5 5,5.5 L51,5.5 C51.8284271,5.5 52.5,6.17157288 52.5,7 C52.5,7.82842712 51.8284271,8.5 51,8.5 L5,8.5 C4.17157288,8.5 3.5,7.82842712 3.5,7 Z M11.5,9.5 L16.5,9.5 L16.5,12.5 L11.5,12.5 L11.5,9.5 Z M1.543,30.752 L3.934,16.421 C4.21166784,14.7303515 5.67671972,13.4920944 7.39,13.5 L49.26,13.5 C50.7056393,13.4939894 52.0046241,14.3818678 52.524,15.731 L52.824,16.5 L47,16.5 C46.1715729,16.5 45.5,17.1715729 45.5,18 L45.5,26 C45.5,26.8284271 46.1715729,27.5 47,27.5 L57,27.5 C57.0338597,27.4968473 57.0673435,27.4904854 57.1,27.481 L58.268,30.481 C58.3900362,30.8075745 58.4615257,31.1508586 58.48,31.499 L1.5,31.499 L1.5,31.329 C1.5014466,31.1359228 1.51581203,30.9431588 1.543,30.752 Z M11,54.5 C7.96243388,54.5 5.5,52.0375661 5.5,49 C5.5,45.9624339 7.96243388,43.5 11,43.5 C14.0375661,43.5 16.5,45.9624339 16.5,49 C16.4966932,52.0361953 14.0361953,54.4966932 11,54.5 Z M11,42.5 C8.00254621,42.503285 5.39601428,44.5558773 4.69,47.469 C2.88949617,47.3117588 1.50607883,45.8073466 1.5,44 L1.5,38.5 L40.5,38.5 L40.5,47.5 L17.318,47.5 C16.6215295,44.5729089 14.0088047,42.5052255 11,42.5 Z M50,54.5 C46.9624339,54.5 44.5,52.0375661 44.5,49 C44.5,45.9624339 46.9624339,43.5 50,43.5 C53.0375661,43.5 55.5,45.9624339 55.5,49 C55.4966932,52.0361953 53.0361953,54.4966932 50,54.5 Z M56.257,47.262 C55.4665939,44.4048268 52.8411154,42.4459946 49.8771596,42.5020917 C46.9132039,42.5581889 44.3637266,44.6149645 43.682,47.5 L41.5,47.5 L41.5,38.5 L58.5000186,38.5 L58.5,44 C58.504722,45.4483756 57.6111006,46.7479712 56.257,47.262 Z" id="Shape"/><path d="M19,27.5 L27,27.5 C27.8284271,27.5 28.5,26.8284271 28.5,26 L28.5,18 C28.5,17.1715729 27.8284271,16.5 27,16.5 L19,16.5 C18.1715729,16.5 17.5,17.1715729 17.5,18 L17.5,26 C17.5,26.8284271 18.1715729,27.5 19,27.5 Z M18.5,18 C18.5,17.7238576 18.7238576,17.5 19,17.5 L27,17.5 C27.2761424,17.5 27.5,17.7238576 27.5,18 L27.5,26 C27.5,26.2761424 27.2761424,26.5 27,26.5 L19,26.5 C18.7238576,26.5 18.5,26.2761424 18.5,26 L18.5,18 Z" id="Shape"/><path d="M33,27.5 L41,27.5 C41.8284271,27.5 42.5,26.8284271 42.5,26 L42.5,18 C42.5,17.1715729 41.8284271,16.5 41,16.5 L33,16.5 C32.1715729,16.5 31.5,17.1715729 31.5,18 L31.5,26 C31.5,26.8284271 32.1715729,27.5 33,27.5 Z M32.5,18 C32.5,17.7238576 32.7238576,17.5 33,17.5 L41,17.5 C41.2761424,17.5 41.5,17.7238576 41.5,18 L41.5,26 C41.5,26.2761424 41.2761424,26.5 41,26.5 L33,26.5 C32.7238576,26.5 32.5,26.2761424 32.5,26 L32.5,18 Z" id="Shape"/><path d="M6.972,27.5 L13,27.5 C13.8284271,27.5 14.5,26.8284271 14.5,26 L14.5,18 C14.5,17.1715729 13.8284271,16.5 13,16.5 L8.24,16.5 C7.50549018,16.5008453 6.88055166,17.0354772 6.766,17.761 L5.49,25.761 C5.41992725,26.195168 5.54391952,26.6382151 5.82917642,26.9729396 C6.11443332,27.3076642 6.53221381,27.5003409 6.972,27.5 Z M7.755,17.912 C7.79296862,17.6738684 7.99886274,17.4989646 8.24,17.5 L13,17.5 C13.2761424,17.5 13.5,17.7238576 13.5,18 L13.5,26 C13.5,26.2761424 13.2761424,26.5 13,26.5 L6.972,26.5 C6.82571603,26.4997895 6.68686131,26.435528 6.59202574,26.3241491 C6.49719017,26.2127702 6.45588696,26.0654466 6.479,25.921 L7.755,17.912 Z" id="Shape"/><path d="M11,46.5 C9.61928813,46.5 8.5,47.6192881 8.5,49 C8.5,50.3807119 9.61928813,51.5 11,51.5 C12.3807119,51.5 13.5,50.3807119 13.5,49 C13.5,47.6192881 12.3807119,46.5 11,46.5 Z M11,50.5 C10.3933066,50.5 9.8463522,50.1345367 9.6141807,49.5740251 C9.3820092,49.0135136 9.51034283,48.3683368 9.93933983,47.9393398 C10.3683368,47.5103428 11.0135136,47.3820092 11.5740251,47.6141807 C12.1345367,47.8463522 12.5,48.3933066 12.5,49 C12.5,49.8284271 11.8284271,50.5 11,50.5 Z" id="Shape"/><path d="M50,46.5 C48.6192881,46.5 47.5,47.6192881 47.5,49 C47.5,50.3807119 48.6192881,51.5 50,51.5 C51.3807119,51.5 52.5,50.3807119 52.5,49 C52.5,47.6192881 51.3807119,46.5 50,46.5 Z M50,50.5 C49.1715729,50.5 48.5,49.8284271 48.5,49 C48.5,48.1715729 49.1715729,47.5 50,47.5 C50.8284271,47.5 51.5,48.1715729 51.5,49 C51.5,49.8284271 50.8284271,50.5 50,50.5 Z" id="Shape"/></g></g></g></svg>